<svg xmlns="http://www.w3.org/2000/svg" width="182.157" height="205.188" viewBox="0 0 182.157 205.188">
  <defs>
    <style>
      .cls-1 {
        fill: #fff;
        fill-rule: evenodd;
        opacity: 0.1;
      }
    </style>
  </defs>
  <path id="twitter" class="cls-1" d="M114.468,18.347c15.042-5.836,25.132-3.274,35.413.921,6.327-2.964,13.473-9.743,17.539-14.125L171.3,0.689c-0.012,8.783-1.66,16.258-5.923,23.041-0.947,1.506-1.752,3.367-3.171,4.626,0.012,0.031.024,0.064,0.035,0.095,8.451-3.207,14.037-9.612,19.917-14.135l0.035,0.1a67.344,67.344,0,0,1-7.651,20.11q-2.159,3.55-4.317,7.1c3.419,8.954,6.332,17.627,7.434,25.8,6.4,47.534-8.494,86.879-44.739,114.718-13.015,10-36.081,20.621-54.466,22.626a151.74,151.74,0,0,1-25.748.929,97.55,97.55,0,0,1-13.163-1.644l-4.2-.833c3.842-1.284,8.672-1.869,12.667-4.118,3.614-2.034,7.443-3.258,10.7-5.341,8.128-5.2,15.034-10.652,20.341-17.1,2.573-3.125,6.717-7.216,8.028-10.844A35.31,35.31,0,0,1,74.676,168c-14.289.179-24.672-5.336-34-15.926,3.985-.989,15.391-4.048,17.17-7.18-4.922,1.509-10.589.417-14.668-.442-12.516-2.634-24.743-10.274-30.731-26.748q2.352,0.215,4.705.431a45.667,45.667,0,0,0,9.041-.732c1.386-.207,4.239-0.394,5.515-1.488-0.064.025-.127,0.048-0.191,0.071-2.812-1.571-6.58-1.921-9.463-3.653C12.537,106.609,1.823,96.355.215,80.041A48.443,48.443,0,0,1,.664,68.31l0.226,0.025c1.345,1.314,3.47,1.859,5.034,2.8a76.425,76.425,0,0,0,15.731,6.862c18.386,5.931,33.767,8.074,56.284,5.569A79.5,79.5,0,0,0,96.324,79.4c-3.642-4.479-6.127-12.98-6.568-18.448C88.648,47.2,92.9,35.425,102.213,26.53a50.275,50.275,0,0,1,7.7-5.857Z" transform="translate(-0.031 -0.688)"/>
</svg>
